<?xml version="1.0" encoding="utf-8"?>
<!-- Generator: Adobe Illustrator 16.0.0, SVG Export Plug-In . SVG Version: 6.00 Build 0)  -->
<!DOCTYPE svg PUBLIC "-//W3C//DTD SVG 1.1//EN" "http://www.w3.org/Graphics/SVG/1.1/DTD/svg11.dtd">
<svg version="1.1" id="Capa_1" xmlns="http://www.w3.org/2000/svg" xmlns:xlink="http://www.w3.org/1999/xlink" x="0px" y="0px"
	 width="600px" height="800px" viewBox="0 0 600 800" enable-background="new 0 0 600 800" xml:space="preserve">
<path fill="#030104" d="M447.115,226.665c23.097,0,41.652-18.515,41.652-41.527V141.61c0-23.054-18.556-41.61-41.652-41.61
	c-22.95,0-41.568,18.556-41.568,41.61v43.527C405.547,208.15,424.165,226.665,447.115,226.665z"/>
<path fill="#030104" d="M595.043,172.059h-83.866v21.076c0,35.009-28.386,63.416-63.332,63.416
	c-34.988,0-63.332-28.407-63.332-63.416v-21.076H215.508v21.076c0,35.009-28.344,63.416-63.332,63.416
	c-35.029,0-63.332-28.407-63.332-63.416v-21.076l-84.533-1.083v529.004L46.567,700h506.865l42.257-0.146L595.043,172.059z
	 M553.433,657.91H46.567V319.903h506.865V657.91z"/>
<path fill="#030104" d="M151.427,226.665c23.054,0,41.652-18.515,41.652-41.527V141.61c0-23.054-18.598-41.61-41.652-41.61
	c-22.93,0-41.569,18.556-41.569,41.61v43.527C109.858,208.15,128.497,226.665,151.427,226.665z"/>
<path fill="#030104" d="M160.632,548.136c8.705,4.749,28.469,12.746,48.358,12.746c25.221,0,37.945-12.101,37.945-27.47
	c0-20.701-20.535-30.011-41.819-30.011h-19.806v-34.862h19.077c16.349,0,36.821-6.394,36.821-23.972
	c0-12.495-9.976-21.742-30.677-21.742c-16.911,0-34.78,7.373-43.152,12.517l-9.934-35.134c12.579-7.997,37.091-15.661,64.311-15.661
	c44.13,0,68.581,23.284,68.581,51.69c0,22.097-12.371,39.674-37.987,48.254v0.688c24.929,4.457,45.109,23.346,45.109,50.774
	c0,36.425-32.301,63.27-85.012,63.27c-26.887,0-49.504-6.998-61.625-14.412L160.632,548.136z"/>
<polygon fill="#030104" points="391.469,431.197 390.864,431.197 351.232,450.024 343.256,413.579 398.508,388.066 438.452,388.066 
	438.452,595.744 391.469,595.744 "/>
</svg>
